# Blender v2.82 (sub 7) OBJ File: 'ship.blend'
# www.blender.org
mtllib maingun.mtl
o maingun_Cube.001
v 0.831549 0.293068 0.512502
v 1.073688 0.123405 -0.268301
v 1.039040 -0.294459 0.664554
v 0.855056 -0.294459 1.005969
v 0.698501 0.293068 0.670301
v 0.748527 -0.262173 -1.024352
v 0.701994 0.293068 -0.540085
v 0.000000 0.293068 0.512502
v 1.073688 0.123405 0.687405
v 0.776460 0.090305 -1.083938
v 0.884273 0.047007 1.063437
v 0.000000 0.293068 -0.540085
v 0.000000 0.293068 0.670301
v 0.831549 0.293068 -0.194560
v 1.039040 -0.294459 -0.253175
v 0.000000 0.293068 -0.194560
v 0.776460 -0.186775 -1.083938
v 0.884273 -0.186775 1.063437
v 1.073688 -0.186775 0.687405
v 1.073688 -0.186775 -0.268301
v -0.831549 0.293068 0.512502
v -1.073688 0.123405 -0.268301
v -1.039040 -0.294459 0.664554
v 0.000000 -0.294459 0.665983
v -0.855056 -0.294459 1.005969
v -0.698501 0.293068 0.670301
v -0.748527 -0.262173 -1.024352
v -0.701994 0.293068 -0.540085
v -1.073688 0.123405 0.687405
v -0.776460 0.090305 -1.083938
v -0.884273 0.047007 1.063437
v 0.000000 -0.262173 -1.033158
v 0.000000 -0.294459 0.990949
v 0.000000 0.047007 1.063437
v 0.000000 0.090305 -1.083938
v -0.831549 0.293068 -0.194560
v -1.039040 -0.294459 -0.253175
v 0.000000 -0.294459 -0.268301
v -0.776460 -0.186775 -1.083938
v -0.884273 -0.186775 1.063437
v -1.073688 -0.186775 0.687405
v 0.000000 -0.186775 -1.083938
v 0.000000 -0.186775 1.063437
v -1.073688 -0.186775 -0.268301
vt 0.420821 0.500000
vt 0.552806 0.500000
vt 0.552806 0.594957
vt 0.420821 0.594957
vt 0.552806 0.375000
vt 0.625000 0.375000
vt 0.625000 0.500000
vt 0.552806 0.676067
vt 0.625000 0.676067
vt 0.625000 0.750000
vt 0.552806 0.750000
vt 0.250000 0.500000
vt 0.375000 0.500000
vt 0.375000 0.594957
vt 0.250000 0.594957
vt 0.250000 0.676067
vt 0.375000 0.676067
vt 0.375000 0.750000
vt 0.250000 0.750000
vt 0.750000 0.500000
vt 0.750000 0.594957
vt 0.625000 0.594957
vt 0.420821 0.676067
vt 0.420821 0.750000
vt 0.420821 0.375000
vt 0.552806 0.875000
vt 0.420821 0.875000
vt 0.750000 0.676067
vt 0.750000 0.750000
vt 0.625000 0.875000
vt 0.375000 0.875000
vt 0.375000 0.375000
vt 0.420821 0.500000
vt 0.420821 0.594957
vt 0.552806 0.594957
vt 0.552806 0.500000
vt 0.625000 0.500000
vt 0.552806 0.676067
vt 0.552806 0.750000
vt 0.625000 0.750000
vt 0.625000 0.676067
vt 0.375000 0.594957
vt 0.375000 0.500000
vt 0.375000 0.750000
vt 0.375000 0.676067
vt 0.625000 0.594957
vt 0.420821 0.676067
vt 0.420821 0.750000
vn 0.9396 0.0000 -0.3424
vn 0.0000 0.9370 -0.3493
vn 0.3730 0.8599 0.3484
vn 0.0006 -0.9991 -0.0421
vn 0.0000 -1.0000 0.0000
vn 0.0000 1.0000 -0.0000
vn 0.5333 0.8170 -0.2193
vn 0.8931 0.0000 0.4499
vn 0.0000 0.0000 -1.0000
vn 1.0000 0.0000 0.0000
vn 0.0000 0.0000 1.0000
vn 0.0000 0.8477 0.5305
vn 0.5738 0.8190 0.0000
vn -0.0074 -0.5159 0.8566
vn 0.9519 -0.3063 0.0000
vn 0.0047 -0.5912 -0.8065
vn 0.8134 -0.3991 0.4233
vn 0.8476 -0.4213 -0.3225
vn -0.9396 0.0000 -0.3424
vn -0.3730 0.8599 0.3484
vn -0.0006 -0.9991 -0.0421
vn -0.5333 0.8170 -0.2193
vn -0.8931 0.0000 0.4499
vn -1.0000 0.0000 0.0000
vn -0.5738 0.8190 0.0000
vn 0.0074 -0.5159 0.8566
vn -0.9519 -0.3063 0.0000
vn -0.0047 -0.5912 -0.8065
vn -0.8134 -0.3991 0.4233
vn -0.8476 -0.4213 -0.3225
usemtl None
s off
f 17/1/1 10/2/1 2/3/1 20/4/1
f 35/5/2 12/6/2 7/7/2 10/2/2
f 9/8/3 1/9/3 5/10/3 11/11/3
f 32/12/4 6/13/4 15/14/4 38/15/4
f 24/16/5 3/17/5 4/18/5 33/19/5
f 7/7/6 12/20/6 16/21/6 14/22/6
f 10/2/7 7/7/7 14/22/7 2/3/7
f 19/23/8 9/8/8 11/11/8 18/24/8
f 42/25/9 35/5/9 10/2/9 17/1/9
f 20/4/10 2/3/10 9/8/10 19/23/10
f 38/15/5 15/14/5 3/17/5 24/16/5
f 18/24/11 11/11/11 34/26/11 43/27/11
f 1/9/6 8/28/6 13/29/6 5/10/6
f 14/22/6 16/21/6 8/28/6 1/9/6
f 11/11/12 5/10/12 13/30/12 34/26/12
f 2/3/13 14/22/13 1/9/13 9/8/13
f 4/18/14 18/24/14 43/27/14 33/31/14
f 15/14/15 20/4/15 19/23/15 3/17/15
f 32/32/16 42/25/16 17/1/16 6/13/16
f 3/17/17 19/23/17 18/24/17 4/18/17
f 6/13/18 17/1/18 20/4/18 15/14/18
f 39/33/19 44/34/19 22/35/19 30/36/19
f 35/5/2 30/36/2 28/37/2 12/6/2
f 29/38/20 31/39/20 26/40/20 21/41/20
f 32/12/21 38/15/21 37/42/21 27/43/21
f 24/16/5 33/19/5 25/44/5 23/45/5
f 28/37/6 36/46/6 16/21/6 12/20/6
f 30/36/22 22/35/22 36/46/22 28/37/22
f 41/47/23 40/48/23 31/39/23 29/38/23
f 42/25/9 39/33/9 30/36/9 35/5/9
f 44/34/24 41/47/24 29/38/24 22/35/24
f 38/15/5 24/16/5 23/45/5 37/42/5
f 40/48/11 43/27/11 34/26/11 31/39/11
f 21/41/6 26/40/6 13/29/6 8/28/6
f 36/46/6 21/41/6 8/28/6 16/21/6
f 31/39/12 34/26/12 13/30/12 26/40/12
f 22/35/25 29/38/25 21/41/25 36/46/25
f 25/44/26 33/31/26 43/27/26 40/48/26
f 37/42/27 23/45/27 41/47/27 44/34/27
f 32/32/28 27/43/28 39/33/28 42/25/28
f 23/45/29 25/44/29 40/48/29 41/47/29
f 27/43/30 37/42/30 44/34/30 39/33/30
